<!-- Created with Inkscape (http://www.inkscape.org/) -->
<svg width="73.294mm" height="30.983mm" version="1.1" viewBox="0 0 73.294 30.983" xmlns="http://www.w3.org/2000/svg">
 <g stroke="#1a1a1a" stroke-linecap="round">
  <path d="m71.22 3.3935c0.12652-1.8706-1.9568-1.6031-1.9457-0.0971 0.01213 1.6433 1.6044 2.0494 2.6134 1.7589 1-0.28795 1.4435-1.8281 1.2676-2.8542-0.15615-0.91091-1.0191-1.7514-1.9049-2.0139-0.86544-0.25644-1.9131 0.0903-2.6321 0.63622-0.6678 0.50711-0.99066 1.3919-1.2264 2.1968-0.52543 1.7942-0.27444 3.73-0.33993 5.5984-0.18327 5.229-0.61738 10.485-0.14794 15.696 0.13737 1.5249 0.53031 3.0168 0.86344 4.5112 0.15226 0.68298 0.41988 1.3378 0.51848 2.0342" fill="none" stroke-width=".2"/>
  <path d="m2.0733 3.4151c-0.12652-1.8706 1.9568-1.6031 1.9457-0.0971-0.01213 1.6433-1.6044 2.0494-2.6134 1.7589-1-0.28795-1.4435-1.8281-1.2676-2.8542 0.15615-0.91091 1.0191-1.7514 1.9049-2.0139 0.86544-0.25645 1.9131 0.0903 2.6321 0.63621 0.6678 0.50712 0.99066 1.3919 1.2264 2.1969 0.52543 1.7942 0.27438 3.73 0.33993 5.5984 0.18215 5.1919 0.60236 10.409 0.14793 15.584-0.13711 1.5615-0.52578 3.0919-0.86344 4.6226-0.15073 0.68331-0.41988 1.3378-0.51848 2.0342" fill="none" stroke-width=".2"/>
  <rect x="6.3796" y="12.535" width="60.544" height="11.844" fill="#fff" stroke-linejoin="round" stroke-width=".22423"/>
  <ellipse cx="57.506" cy="7.1519" rx="2.6931" ry="2.6458" fill="#333" stroke-linejoin="round" stroke-width=".2"/>
 </g>
 <path d="m53.452 13.022c1.0407-1.0475 0.96336-2.8006 2.0086-3.7641 0.65-0.59912 1.6672-0.61167 2.4328-1.053 0.78291-0.45125 1.4947-1.0229 2.1792-1.6131 0.66187-0.57061 1.1066-1.401 1.8533-1.8546 0.88164-0.53561 1.932-0.76946 2.9503-0.932 0.99437-0.15871 2.0138-0.033 3.0206-0.0319-0.74613 0.79314-0.64646 1.9548-1.0491 2.9008-0.5006 1.1762-0.94717 2.4033-1.6947 3.4398-0.65976 0.9148-1.3848 1.9029-2.4077 2.3764-1.8117 0.83866-3.9738 0.38417-5.9647 0.52621-0.80182 0.0573-1.6048 0.16394-2.408 0.13127-0.3095-0.0126-0.61768-0.0604-0.92075-0.12579z" fill="#ececec" stroke="#333" stroke-width=".2"/>
 <path d="m7.067 16.407c-2.3573-1.8949-1.0206-4.9196 0.30527-6.7336 1.6232-2.2207 4.9918-2.7747 7.7412-2.8586 2.9334-0.0896 5.6328 0.0539 8.3934-0.42217 2.5505-0.4398 4.8562-2.0395 7.4373-2.2296 2.8208-0.2078 5.5847 1.519 8.3972 1.2193 2.0331-0.21664 3.7575-1.6742 5.7482-2.1407 1.4103-0.33051 2.8977-0.71415 4.322-0.45069 2.5786 0.47698 5.8368 1.143 7.015 3.5609 0.44668 0.91668-0.0703 2.1361-0.52212 3.0364-0.40979 0.81653-0.91736 1.8209-1.5816 2.557-1.0491 1.1625-3.2865 1.1651-3.6917 2.82-1.8733-1.36-4.0727-1.8695-6.2345-2.1348-4.1239-0.50615-8.2649 0.85047-12.408 1.0898-1.6746 0.0967-3.3536 0.21605-5.0291 0.13963-1.9459-0.0888-3.8617-0.72199-5.8091-0.69364-3.8883 0.0567-7.8654 0.38379-11.562 1.7222-0.90914 0.32915-1.8587 0.52426-2.5212 1.5188z" fill="#ececec" stroke="#333" stroke-width=".2"/>
</svg>
