<!-- Created with Inkscape (http://www.inkscape.org/) -->
<svg width="73.345mm" height="36.749mm" version="1.1" viewBox="0 0 73.345 36.749" xmlns="http://www.w3.org/2000/svg">
 <g stroke="#1a1a1a" stroke-linecap="round">
  <path d="m2.0733 3.408c-0.12652-1.8706 1.9568-1.6031 1.9457-0.0971-0.01213 1.6433-1.6044 2.0494-2.6134 1.7589-1-0.28795-1.4435-1.8281-1.2676-2.8542 0.15615-0.91091 1.0191-1.7514 1.9049-2.0139 0.86544-0.25645 1.9131 0.0903 2.6321 0.63621 0.6678 0.50712 0.99066 1.3919 1.2264 2.1969 0.52543 1.7942 0.27438 3.73 0.33993 5.5984 0.18215 5.1919 0.61294 15.257 0.15851 20.432-0.19789 2.8744-0.47672 4.2896-1.746 7.5829" fill="none" stroke-width=".2"/>
  <path d="m71.272 3.3935c0.12652-1.8706-1.9568-1.6031-1.9457-0.0971 0.01213 1.6433 1.6044 2.0494 2.6134 1.7589 1-0.28795 1.4435-1.8281 1.2676-2.8542-0.15615-0.91091-1.0191-1.7514-1.9049-2.0139-0.86544-0.25645-1.9131 0.0903-2.6321 0.63621-0.6678 0.50712-0.99066 1.3919-1.2264 2.1969-0.52543 1.7942-0.27438 3.73-0.33993 5.5984-0.18215 5.1919-0.61294 15.257-0.15851 20.432 0.19789 2.8744 0.47672 4.2896 1.746 7.5829" fill="none" stroke-width=".2"/>
  <rect x="6.3999" y="12.548" width="60.504" height="16.517" fill="#fff" stroke-linejoin="round" stroke-width=".26471"/>
  <ellipse cx="57.506" cy="7.1448" rx="2.6931" ry="2.6458" fill="#333" stroke-linejoin="round" stroke-width=".2"/>
 </g>
 <path d="m53.452 13.015c1.0407-1.0475 0.96336-2.8006 2.0086-3.7641 0.65-0.59912 1.6672-0.61167 2.4328-1.053 0.78291-0.45125 1.4947-1.0229 2.1792-1.6131 0.66187-0.57061 1.1066-1.401 1.8533-1.8546 0.88164-0.53561 1.932-0.76946 2.9503-0.932 0.99437-0.15871 2.0138-0.033 3.0206-0.0319-0.74613 0.79314-0.64646 1.9548-1.0491 2.9008-0.5006 1.1762-0.94717 2.4033-1.6947 3.4398-0.65976 0.9148-1.3848 1.9029-2.4077 2.3764-1.8117 0.83866-3.9738 0.38417-5.9647 0.52621-0.80182 0.0573-1.6048 0.16394-2.408 0.13127-0.3095-0.0126-0.61768-0.0604-0.92075-0.12579z" fill="#ececec" stroke="#333" stroke-width=".2"/>
 <path d="m7.067 16.843c-2.3573-1.9562-1.0206-5.0787 0.30527-6.9513 1.6232-2.2925 4.9918-2.8644 7.7412-2.951 2.9334-0.092497 5.6328 0.055643 8.3934-0.43582 2.5505-0.45402 4.8562-2.1055 7.4373-2.3017 2.8208-0.21452 5.5847 1.5681 8.3972 1.2587 2.0331-0.22365 3.7575-1.7283 5.7482-2.2099 1.4103-0.3412 2.8977-0.73724 4.322-0.46526 2.5786 0.4924 5.8368 1.18 7.015 3.6761 0.44668 0.94632-0.0703 2.2052-0.52212 3.1346-0.40979 0.84293-0.91736 1.8798-1.5816 2.6397-1.0491 1.2001-3.2865 1.2028-3.6917 2.9112-1.8733-1.404-4.0727-1.93-6.2345-2.2038-4.1239-0.52252-8.2649 0.87797-12.408 1.125-1.6746 0.09983-3.3536 0.22304-5.0291 0.14415-1.9459-0.09167-3.8617-0.74534-5.8091-0.71607-3.8883 0.05853-7.8654 0.3962-11.562 1.7779-0.90914 0.33979-1.8587 0.54121-2.5212 1.5679z" fill="#ececec" stroke="#333" stroke-width=".20321"/>
</svg>
