<!-- Created with Inkscape (http://www.inkscape.org/) -->
<svg width="74.692mm" height="29.018mm" version="1.1" viewBox="0 0 74.692 29.018" xmlns="http://www.w3.org/2000/svg">
 <g transform="translate(-69.999 -81.408)">
  <path d="m83.716 110.38c-4.7299-0.027-11.427-0.40401-13.386-4.7102-0.99814-2.1941 0.59424-5.4976 2.6715-6.7198 2.3677-1.3931 5.6803-0.3639 8.1725 1.0591-2.0064-1.9112-2.2975-3.3512-1.9283-5.1451 0.37261-1.8105 2.0676-3.4722 3.8383-4.0016 2.0973-0.6271 4.8143-0.42193 6.4012 1.4664-0.95362-3.4929 2.8296-7.9523 6.2377-9.7745 2.7713-1.4817 6.8232-1.5655 9.4251 0.1969 2.1846 1.4797 3.6098 5.9177 3.0907 7.2881 1.1259-2.6467 3.4993-4.5687 6.0907-5.012 2.7182-0.46508 6.6377 0.32059 7.7727 2.8344 1.1964 2.6498-2.7674 7.9984-3.1764 8.1231 2.4915-1.5478 5.489-3.1351 8.32-2.518 2.1044 0.45871 4.3398 2.1817 4.845 4.2759 0.46934 1.9454-0.58561 3.0467-2.1945 5.5882 2.3456-1.9996 5.2322-3.5781 8.0577-3.0586 2.9394 0.54043 6.9306 2.975 6.7032 5.9556-0.19354 2.5368-3.7798 4.149-6.4082 4.1444-8.1896-0.0142-15.093-0.0159-22.64-0.0158-10.631 1.9e-4 -20.807 0.0864-31.893 0.0234z" fill="#fff" stroke="#1a1a1a" stroke-linecap="round" stroke-linejoin="round" stroke-width=".05"/>
 </g>
</svg>
