<!-- Created with Inkscape (http://www.inkscape.org/) -->
<svg width="41.357mm" height="16.067mm" version="1.1" viewBox="0 0 41.357 16.067" xmlns="http://www.w3.org/2000/svg">
 <g transform="translate(-79.399 -106.71)">
  <path d="m113.15 122.74c2.6175-0.0149 6.3236-0.2234 7.4077-2.6044 0.55238-1.2132-0.32885-3.0398-1.4784-3.7156-1.3103-0.77026-3.1435-0.20121-4.5227 0.58562 1.1103-1.0568 1.2715-1.8529 1.0671-2.8449-0.2062-1.0011-1.1442-1.9199-2.1241-2.2126-1.1606-0.34674-2.6642-0.2333-3.5424 0.81083 0.52773-1.9313-1.5659-4.397-3.452-5.4046-1.5336-0.81927-3.776-0.86559-5.2159 0.10888-1.2089 0.81815-1.9977 3.2721-1.7104 4.0298-0.62307-1.4634-1.9365-2.5261-3.3706-2.7713-1.5043-0.25716-3.6733 0.17726-4.3014 1.5672-0.66208 1.4651 1.5315 4.4226 1.7578 4.4915-1.3788-0.85585-3.0376-1.7335-4.6043-1.3923-1.1646 0.25364-2.4017 1.2063-2.6812 2.3642-0.25973 1.0757 0.32408 1.6846 1.2145 3.0899-1.298-1.1056-2.8955-1.9784-4.4592-1.6912-1.6266 0.29882-3.8354 1.6449-3.7095 3.293 0.10711 1.4027 2.0917 2.2941 3.5463 2.2916 4.5321-8e-3 8.3527-9e-3 12.529-9e-3 5.8832 1e-4 11.515 0.0478 17.65 0.0129z" fill="#fff" stroke="#1a1a1a" stroke-linecap="round" stroke-linejoin="round" stroke-width=".05"/>
 </g>
</svg>
