<!-- Created with Inkscape (http://www.inkscape.org/) -->
<svg width="25.177mm" height="9.7818mm" version="1.1" viewBox="0 0 25.177 9.7818" xmlns="http://www.w3.org/2000/svg">
 <g transform="translate(-89.386 -87.186)">
  <path d="m94.02 96.935c-1.5922-9e-3 -3.8466-0.13572-4.5061-1.5823-0.33601-0.73705 0.20004-1.8468 0.89932-2.2574 0.79703-0.46797 1.9122-0.12225 2.7511 0.35579-0.67541-0.64203-0.77342-1.1257-0.64914-1.7284 0.12543-0.6082 0.69603-1.1664 1.2921-1.3442 0.70602-0.21066 1.6207-0.14173 2.1549 0.49262-0.32102-1.1734 0.95253-2.6714 2.0998-3.2835 0.9329-0.49774 2.2969-0.52588 3.1728 0.0661 0.73539 0.49707 1.2152 1.9879 1.0404 2.4483 0.379-0.88909 1.178-1.5347 2.0503-1.6837 0.91505-0.15623 2.2345 0.1077 2.6165 0.95216 0.40274 0.89013-0.93159 2.6869-1.0693 2.7288 0.83872-0.51995 1.8478-1.0532 2.8008-0.84585 0.70841 0.15409 1.4609 0.7329 1.631 1.4364 0.158 0.65352-0.19713 1.0235-0.73875 1.8772 0.78959-0.67172 1.7613-1.202 2.7125-1.0274 0.98949 0.18154 2.333 0.99937 2.2565 2.0006-0.0652 0.85219-1.2724 1.3938-2.1572 1.3922-2.7569-5e-3 -5.0809-5e-3 -7.6214-5e-3 -3.5788 6e-5 -7.0044 0.029-10.736 8e-3z" fill="#fff" stroke="#1a1a1a" stroke-linecap="round" stroke-linejoin="round" stroke-width=".05"/>
 </g>
 <g fill="none" stroke="#1a1a1a" stroke-linecap="round" stroke-linejoin="round">
  <path d="m6.6031 6.2646s1.4415-0.22262 1.9515-0.17542c1.089 0.10079-3.1108 2.5693-2.0173 2.5874 0.83125 0.01379 2.4558-0.35083 2.4558-0.35083" stroke-width=".05"/>
  <path d="m9.8834 5.3368s1.2852-0.19847 1.7399-0.15639c0.97088 0.08986-2.7734 2.2906-1.7985 2.3068 0.7411 0.012295 2.1895-0.31279 2.1895-0.31279" stroke-width=".049655"/>
  <g stroke-width=".05">
   <path d="m13.235 4.9638s1.0433-0.043699 1.4024 0.030451c0.76674 0.15834-2.4176 1.5804-1.6411 1.6803 0.5903 0.075939 1.7751-0.054229 1.7751-0.054229"/>
   <path d="m15.835 6.5301c-0.03879 1.088e-4 -0.05269 0.034971-0.05574 0.062793-0.0027 0.024275 0.01497 0.050965 0.0356 0.064032 0.0299 0.01894 0.07573 0.025406 0.10596 0.00698 0.02773-0.016902 0.0478-0.058127 0.03884-0.089339-7e-3 -0.024483-0.03461-0.047298-0.063-0.04325"/>
   <path d="m16.723 6.5633c-0.03879 1.088e-4 -0.05269 0.034971-0.05574 0.062793-0.0027 0.024275 0.01497 0.050965 0.0356 0.064032 0.0299 0.01894 0.07573 0.025406 0.10596 0.00698 0.02773-0.016902 0.0478-0.058127 0.03884-0.089339-7e-3 -0.024483-0.03461-0.047298-0.063-0.04325"/>
   <path d="m17.531 6.7024c-0.03879 1.088e-4 -0.05269 0.034971-0.05574 0.062793-0.0027 0.024275 0.01497 0.050965 0.0356 0.064032 0.0299 0.01894 0.07573 0.025406 0.10596 0.00698 0.02773-0.016902 0.0478-0.058127 0.03884-0.089339-7e-3 -0.024483-0.03461-0.047298-0.063-0.04325"/>
  </g>
 </g>
</svg>
