<!-- Created with Inkscape (http://www.inkscape.org/) -->
<svg width="26.759mm" height="12.849mm" version="1.1" viewBox="0 0 26.759 12.849" xmlns="http://www.w3.org/2000/svg">
 <g transform="translate(-53.481 -156.81)">
  <path d="m58.482 169.5c-1.6774-0.012-4.0523-0.17512-4.747-2.0418-0.35398-0.95114 0.21074-2.3832 0.94741-2.913 0.83965-0.6039 2.0144-0.15777 2.8982 0.45912-0.71152-0.8285-0.81478-1.4527-0.68385-2.2304 0.13214-0.78484 0.73325-1.5052 1.3612-1.7347 0.74377-0.27184 1.7073-0.18288 2.2701 0.63572-0.33818-1.5142 1.0035-3.4473 2.2121-4.2372 0.98279-0.6423 2.4197-0.67862 3.3425 0.0854 0.77471 0.64143 1.2802 2.5653 1.0961 3.1594 0.39927-1.1473 1.241-1.9805 2.16-2.1727 0.96398-0.20161 2.3539 0.13898 2.7565 1.2287 0.42428 1.1486-0.98141 3.4673-1.1265 3.5213 0.88357-0.67096 1.9466-1.359 2.9506-1.0915 0.74629 0.19884 1.539 0.94577 1.7182 1.8536 0.16644 0.84333-0.20768 1.3208-0.77825 2.4225 0.83181-0.86682 1.8555-1.5511 2.8575-1.3259 1.0424 0.23426 2.4578 1.2897 2.3772 2.5817-0.06862 1.0997-1.3404 1.7986-2.2725 1.7966-2.9043-6e-3 -5.3526-6e-3 -8.0289-6e-3 -3.7701 7e-5 -7.379 0.0375-11.31 0.0104z" fill="#0ff" stroke="#1a1a1a" stroke-linecap="round" stroke-linejoin="round" stroke-width=".28796"/>
 </g>
</svg>
